<svg xmlns="http://www.w3.org/2000/svg" xmlns:xlink="http://www.w3.org/1999/xlink" viewBox="0 0 113.04 113.04"><defs><style>.cls-1{fill:none;}.cls-2{fill:#565656;}.cls-3{fill:#ff2929;}.cls-4{opacity:0.51;fill:url(#未命名的渐变_57);}</style><linearGradient id="未命名的渐变_57" x1="326.62" y1="72.77" x2="356.28" y2="146.19" gradientTransform="matrix(-1, 0, 0, 1, 416.7, 0)" gradientUnits="userSpaceOnUse"><stop offset="0" stop-color="#aa0404"/><stop offset="0.12" stop-color="#c60c0c"/><stop offset="0.32" stop-color="#ef1818"/><stop offset="0.42" stop-color="#ff1d1d"/></linearGradient></defs><title>资源 3</title><g id="图层_2" data-name="图层 2"><g id="图层_1-2" data-name="图层 1"><rect class="cls-1" width="113.04" height="113.04" rx="56.52"/><polygon class="cls-2" points="29.34 11.81 42.95 24.23 90.61 24.23 77.21 12.03 29.34 11.81"/><polygon points="29.32 11.79 42.95 24.23 90.61 24.23 29.32 11.79"/><polygon class="cls-2" points="23.53 61.92 36.93 49.57 85 49.57 71.6 61.92 23.53 61.92"/><polygon points="23.53 61.92 36.93 49.57 71.6 61.92 23.53 61.92"/><polygon class="cls-2" points="22.75 15 22.4 87.13 37.67 101.25 37.67 28.76 22.75 15"/><polygon points="22.75 15 37.67 101.25 37.67 28.76 22.75 15"/><polygon class="cls-3" points="77.01 66.73 77.01 101.14 90.64 88.63 90.64 54.09 77.01 66.73"/><polygon class="cls-4" points="77.01 101.14 90.64 88.63 90.64 54.09 77.01 101.14"/></g></g></svg>